<?xml version="1.0" encoding="UTF-8" standalone="no"?>
<!DOCTYPE svg PUBLIC "-//W3C//DTD SVG 1.1//EN" "http://www.w3.org/Graphics/SVG/1.1/DTD/svg11.dtd">
<svg width="100%" height="100%" viewBox="0 0 1024 1024" version="1.1" xmlns="http://www.w3.org/2000/svg" xmlns:xlink="http://www.w3.org/1999/xlink" xml:space="preserve" xmlns:serif="http://www.serif.com/" style="fill-rule:evenodd;clip-rule:evenodd;stroke-linejoin:round;stroke-miterlimit:2;">
    <g transform="matrix(1,0,0,1,-1074,0)">
        <rect id="Artboard2" x="1074" y="0" width="1024" height="1024" style="fill:none;"/>
        <g id="Artboard21" serif:id="Artboard2">
            <g transform="matrix(0.6857,0,0,0.6857,1289.18,298.695)">
                <path d="M58.81,761.86L58.81,953.813L134.185,953.813C193.529,953.813 220.95,916.828 220.95,857.063C220.95,797.86 194.232,761.86 134.185,761.86L58.81,761.86ZM105.357,798.703L126.872,798.703C162.872,798.703 173.279,824.438 173.279,858.188C173.279,905.578 153.732,916.969 126.872,916.969L105.357,916.969L105.357,798.703Z" style="fill:rgb(91,63,187);fill-rule:nonzero;"/>
                <path d="M377.747,916.969L294.779,916.969L294.779,874.219L372.544,874.219L372.544,840.188L294.779,840.188L294.779,798.703L377.747,798.703L377.747,761.86L248.794,761.86L248.794,953.813L377.747,953.813L377.747,916.969Z" style="fill:rgb(91,63,187);fill-rule:nonzero;"/>
                <path d="M451.435,953.813L451.435,834.985L453.544,834.985L494.185,924.844L521.466,924.844L561.966,834.985L563.935,834.985L563.935,953.813L605.7,953.813L605.7,761.86L558.169,761.86L508.81,870.282L507.404,870.282L458.185,761.86L410.091,761.86L410.091,953.813L451.435,953.813Z" style="fill:rgb(91,63,187);fill-rule:nonzero;"/>
                <path d="M806.935,869.578L806.935,847.219C806.935,792.938 775.716,758.485 721.435,758.485C667.154,758.485 635.513,792.657 635.513,847.219L635.513,869.578C635.513,923.578 666.872,957.328 721.154,957.328C775.575,957.328 806.935,923.578 806.935,869.578ZM759.404,846.657L759.404,869.719C759.404,903.047 743.935,919.5 721.294,919.5C698.513,919.5 683.044,903.047 683.044,869.719L683.044,846.657C683.044,813.469 698.513,796.172 721.294,796.172C743.935,796.172 759.404,813.469 759.404,846.657Z" style="fill:rgb(91,63,187);fill-rule:nonzero;"/>
            </g>
        </g>
    </g>
</svg>
